<svg width="12" height="14" viewBox="0 0 12 14" fill="none" xmlns="http://www.w3.org/2000/svg">
<path d="M6 14C4.3375 14 2.92188 13.4351 1.75313 12.3053C0.584375 11.1754 0 9.8 0 8.17895C0 7.3807 0.15625 6.63465 0.46875 5.94079C0.78125 5.24693 1.2125 4.62982 1.7625 4.08947L6 0L10.2375 4.08947C10.7875 4.62982 11.2188 5.24693 11.5312 5.94079C11.8438 6.63465 12 7.3807 12 8.17895C12 9.8 11.4156 11.1754 10.2469 12.3053C9.07812 13.4351 7.6625 14 6 14ZM1.5375 8.8421H10.425C10.575 7.95789 10.4906 7.20263 10.1719 6.57632C9.85312 5.95 9.525 5.47719 9.1875 5.15789L6 2.06316L2.8125 5.15789C2.475 5.47719 2.14375 5.95 1.81875 6.57632C1.49375 7.20263 1.4 7.95789 1.5375 8.8421Z" fill="#3F3F3F"/>
</svg>
