<svg width="24" height="26" viewBox="0 0 24 26" fill="none" xmlns="http://www.w3.org/2000/svg">
	<circle cx="3" cy="8" r="3" fill="white"/>
	<circle cx="21" cy="8" r="3" fill="white"/>
	<circle cx="12" cy="3" r="3" fill="white"/>
	<circle cx="12" cy="23" r="3" transform="rotate(180 12 23)" fill="white"/>
	<path d="M11.1644 7.98639C11.0783 7.47004 11.4765 7 12 7V7C12.5235 7 12.9217 7.47004 12.8356 7.98639L12 13L11.1644 7.98639Z" fill="url(#paint0_linear_50_28)"/>
	<path d="M5.81373 11.9953C5.38777 11.691 5.33696 11.0771 5.70711 10.707V10.707C6.07726 10.3368 6.69119 10.3876 6.99545 10.8136L9.94975 14.9496L5.81373 11.9953Z" fill="url(#paint1_linear_50_28)"/>
	<path d="M17.3685 10.8137C17.6727 10.3878 18.2867 10.337 18.6568 10.7071V10.7071C19.027 11.0773 18.9762 11.6912 18.5502 11.9955L14.4142 14.9497L17.3685 10.8137Z" fill="url(#paint2_linear_50_28)"/>
	<path d="M12.8356 18.0136C12.9217 18.53 12.5235 19 12 19V19C11.4765 19 11.0783 18.53 11.1644 18.0136L12 13L12.8356 18.0136Z" fill="url(#paint3_linear_50_28)"/>
	<defs>
	<linearGradient id="paint0_linear_50_28" x1="12" y1="7" x2="12" y2="13" gradientUnits="userSpaceOnUse">
	<stop stop-color="white"/>
	<stop offset="1" stop-color="#737373" stop-opacity="0"/>
	</linearGradient>
	<linearGradient id="paint1_linear_50_28" x1="5.70711" y1="10.707" x2="9.94975" y2="14.9496" gradientUnits="userSpaceOnUse">
	<stop stop-color="white"/>
	<stop offset="1" stop-color="#737373" stop-opacity="0"/>
	</linearGradient>
	<linearGradient id="paint2_linear_50_28" x1="18.6568" y1="10.7071" x2="14.4142" y2="14.9497" gradientUnits="userSpaceOnUse">
	<stop stop-color="white"/>
	<stop offset="1" stop-color="#737373" stop-opacity="0"/>
	</linearGradient>
	<linearGradient id="paint3_linear_50_28" x1="12" y1="19" x2="12" y2="13" gradientUnits="userSpaceOnUse">
	<stop stop-color="white"/>
	<stop offset="1" stop-color="#737373" stop-opacity="0"/>
	</linearGradient>
	</defs>
</svg>
