<svg width="20" height="20" viewBox="0 0 20 20" fill="none" xmlns="http://www.w3.org/2000/svg">
<path d="M0 19.4729V14.3271L9.69583 4.63125L8.125 3.11458L9.69583 1.59792L11.7542 3.65625L15.1125 0.297917C15.2028 0.207639 15.3156 0.135417 15.451 0.08125C15.5865 0.0270833 15.7264 0 15.8708 0C16.0153 0 16.1507 0.0270833 16.2771 0.08125C16.4035 0.135417 16.5208 0.207639 16.6292 0.297917L19.175 2.84375C19.2653 2.95208 19.3375 3.06944 19.3917 3.19583C19.4458 3.32222 19.4729 3.45764 19.4729 3.60208C19.4729 3.74653 19.4458 3.88646 19.3917 4.02188C19.3375 4.15729 19.2653 4.27014 19.175 4.36042L15.8438 7.69167L17.9021 9.80417L16.3583 11.3479L14.8417 9.77708L5.14583 19.4729H0ZM2.16667 17.3063H4.27917L13.2708 8.26042L11.2125 6.20208L2.16667 15.1938V17.3063ZM14.2729 6.20208L16.8729 3.60208L15.8708 2.6L13.2708 5.2L14.2729 6.20208Z" fill="black"/>
</svg>
