<svg xmlns="http://www.w3.org/2000/svg">
    <symbol id="clipboard" viewBox="0 0 24 24" fill="inherit" xmlns="http://www.w3.org/2000/svg">
        <path d="M16 4C16.93 4 17.395 4 17.7765 4.10222C18.8117 4.37962 19.6204 5.18827 19.8978 6.22354C20 6.60504 20 7.07003 20 8V17.2C20 18.8802 20 19.7202 19.673 20.362C19.3854 20.9265 18.9265 21.3854 18.362 21.673C17.7202 22 16.8802 22 15.2 22H8.8C7.11984 22 6.27976 22 5.63803 21.673C5.07354 21.3854 4.6146 20.9265 4.32698 20.362C4 19.7202 4 18.8802 4 17.2V8C4 7.07003 4 6.60504 4.10222 6.22354C4.37962 5.18827 5.18827 4.37962 6.22354 4.10222C6.60504 4 7.07003 4 8 4M9.6 6H14.4C14.9601 6 15.2401 6 15.454 5.89101C15.6422 5.79513 15.7951 5.64215 15.891 5.45399C16 5.24008 16 4.96005 16 4.4V3.6C16 3.03995 16 2.75992 15.891 2.54601C15.7951 2.35785 15.6422 2.20487 15.454 2.10899C15.2401 2 14.9601 2 14.4 2H9.6C9.03995 2 8.75992 2 8.54601 2.10899C8.35785 2.20487 8.20487 2.35785 8.10899 2.54601C8 2.75992 8 3.03995 8 3.6V4.4C8 4.96005 8 5.24008 8.10899 5.45399C8.20487 5.64215 8.35785 5.79513 8.54601 5.89101C8.75992 6 9.03995 6 9.6 6Z" stroke="currentColor" stroke-width="2" stroke-linecap="round" stroke-linejoin="round"/>
    </symbol>
    <symbol id="close" viewBox="0 0 18 18" fill="inherit" xmlns="http://www.w3.org/2000/svg">
        <path d="M1.8 18L0 16.2L7.2 9L0 1.8L1.8 0L9 7.2L16.2 0L18 1.8L10.8 9L18 16.2L16.2 18L9 10.8L1.8 18Z" />
    </symbol>
    <symbol id="minus" viewBox="0 0 14 2" fill="inherit" xmlns="http://www.w3.org/2000/svg">
        <path d="M0 2V0H14V2H0Z" />
    </symbol>
    <symbol id="plus" viewBox="0 0 14 14" fill="inherit" xmlns="http://www.w3.org/2000/svg">
        <path d="M6 8H0V6H6V0H8V6H14V8H8V14H6V8Z" />
    </symbol>
    <symbol id="sync" viewBox="0 0 16 16" fill="inherit" xmlns="http://www.w3.org/2000/svg">
        <path d="M0 16V14H2.75L2.35 13.65C1.48333 12.8833 0.875 12.0083 0.525 11.025C0.175 10.0417 0 9.05 0 8.05C0 6.2 0.554167 4.55417 1.6625 3.1125C2.77083 1.67083 4.21667 0.716667 6 0.25V2.35C4.8 2.78333 3.83333 3.52083 3.1 4.5625C2.36667 5.60417 2 6.76667 2 8.05C2 8.8 2.14167 9.52917 2.425 10.2375C2.70833 10.9458 3.15 11.6 3.75 12.2L4 12.45V10H6V16H0ZM10 15.75V13.65C11.2 13.2167 12.1667 12.4792 12.9 11.4375C13.6333 10.3958 14 9.23333 14 7.95C14 7.2 13.8583 6.47083 13.575 5.7625C13.2917 5.05417 12.85 4.4 12.25 3.8L12 3.55V6H10V0H16V2H13.25L13.65 2.35C14.4667 3.16667 15.0625 4.05417 15.4375 5.0125C15.8125 5.97083 16 6.95 16 7.95C16 9.8 15.4458 11.4458 14.3375 12.8875C13.2292 14.3292 11.7833 15.2833 10 15.75Z" />
    </symbol>
    <symbol id="solid" viewBox="0 0 16 12" fill="inherit" xmlns="http://www.w3.org/2000/svg">
        <path d="M1.6 12C1.16 12 0.783333 11.8531 0.47 11.5594C0.156667 11.2656 0 10.9125 0 10.5V1.5C0 1.0875 0.156667 0.734375 0.47 0.440625C0.783333 0.146875 1.16 0 1.6 0H14.4C14.84 0 15.2167 0.146875 15.53 0.440625C15.8433 0.734375 16 1.0875 16 1.5V10.5C16 10.9125 15.8433 11.2656 15.53 11.5594C15.2167 11.8531 14.84 12 14.4 12H1.6ZM1.6 10.5H14.4V1.5H1.6V10.5ZM3.2 9H12.8V3H3.2V9Z" />
    </symbol>
    <symbol id="gradient" viewBox="0 0 12 14" fill="inherit" xmlns="http://www.w3.org/2000/svg">
        <path d="M6 14C4.3375 14 2.92188 13.4351 1.75313 12.3053C0.584375 11.1754 0 9.8 0 8.17895C0 7.3807 0.15625 6.63465 0.46875 5.94079C0.78125 5.24693 1.2125 4.62982 1.7625 4.08947L6 0L10.2375 4.08947C10.7875 4.62982 11.2188 5.24693 11.5312 5.94079C11.8438 6.63465 12 7.3807 12 8.17895C12 9.8 11.4156 11.1754 10.2469 12.3053C9.07812 13.4351 7.6625 14 6 14ZM1.5375 8.8421H10.425C10.575 7.95789 10.4906 7.20263 10.1719 6.57632C9.85312 5.95 9.525 5.47719 9.1875 5.15789L6 2.06316L2.8125 5.15789C2.475 5.47719 2.14375 5.95 1.81875 6.57632C1.49375 7.20263 1.4 7.95789 1.5375 8.8421Z" />
    </symbol>
    <symbol id="pipette" viewBox="0 0 20 20" fill="inherit" xmlns="http://www.w3.org/2000/svg">
        <path d="M0 19.4729V14.3271L9.69583 4.63125L8.125 3.11458L9.69583 1.59792L11.7542 3.65625L15.1125 0.297917C15.2028 0.207639 15.3156 0.135417 15.451 0.08125C15.5865 0.0270833 15.7264 0 15.8708 0C16.0153 0 16.1507 0.0270833 16.2771 0.08125C16.4035 0.135417 16.5208 0.207639 16.6292 0.297917L19.175 2.84375C19.2653 2.95208 19.3375 3.06944 19.3917 3.19583C19.4458 3.32222 19.4729 3.45764 19.4729 3.60208C19.4729 3.74653 19.4458 3.88646 19.3917 4.02188C19.3375 4.15729 19.2653 4.27014 19.175 4.36042L15.8438 7.69167L17.9021 9.80417L16.3583 11.3479L14.8417 9.77708L5.14583 19.4729H0ZM2.16667 17.3063H4.27917L13.2708 8.26042L11.2125 6.20208L2.16667 15.1938V17.3063ZM14.2729 6.20208L16.8729 3.60208L15.8708 2.6L13.2708 5.2L14.2729 6.20208Z" />
    </symbol>
    <symbol id="arrow-down" viewBox="0 0 7 4" fill="inherit" xmlns="http://www.w3.org/2000/svg">
        <path d="M7 0.756757L3.5 4L0 0.756757L0.816667 2.38419e-07L3.5 2.48649L6.18333 2.38419e-07L7 0.756757Z" />
    </symbol>
    <symbol id="combination-1" viewBox="0 0 6 15" fill="inherit" xmlns="http://www.w3.org/2000/svg">
        <circle cx="3" cy="3" r="3" fill="white"/>
        <path d="M2.12403 7.99228C2.05817 7.46539 2.46901 7 3 7C3.53099 7 3.94183 7.46539 3.87597 7.99228L3 15L2.12403 7.99228Z" fill="url(#paint0_linear_51_33)"/>
        <defs>
        <linearGradient id="paint0_linear_51_33" x1="3" y1="7" x2="3" y2="15" gradientUnits="userSpaceOnUse">
        <stop stop-color="white"/>
        <stop offset="1" stop-color="#ADADAD" stop-opacity="0"/>
        </linearGradient>
        </defs>
    </symbol>
    <symbol id="combination-2" viewBox="0 0 6 26" fill="inherit" xmlns="http://www.w3.org/2000/svg">
        <circle cx="3" cy="3" r="3" fill="white"/>
        <path d="M2.1644 7.98639C2.07834 7.47004 2.47653 7 3 7C3.52347 7 3.92166 7.47004 3.8356 7.98639L3 13L2.1644 7.98639Z" fill="url(#paint0_linear_51_32)"/>
        <circle cx="3" cy="23" r="3" transform="rotate(180 3 23)" fill="white"/>
        <path d="M3.8356 18.0136C3.92166 18.53 3.52347 19 3 19C2.47653 19 2.07834 18.53 2.1644 18.0136L3 13L3.8356 18.0136Z" fill="url(#paint1_linear_51_32)"/>
        <defs>
        <linearGradient id="paint0_linear_51_32" x1="3" y1="7" x2="3" y2="13" gradientUnits="userSpaceOnUse">
        <stop stop-color="white"/>
        <stop offset="1" stop-color="#ADADAD" stop-opacity="0"/>
        </linearGradient>
        <linearGradient id="paint1_linear_51_32" x1="3" y1="19" x2="3" y2="13" gradientUnits="userSpaceOnUse">
        <stop stop-color="white"/>
        <stop offset="1" stop-color="#ADADAD" stop-opacity="0"/>
        </linearGradient>
        </defs>
    </symbol>
    <symbol id="combination-3" viewBox="0 0 24 17" fill="inherit" xmlns="http://www.w3.org/2000/svg">
        <circle cx="3" cy="8" r="3" fill="white"/>
        <circle cx="21" cy="8" r="3" fill="white"/>
        <circle cx="12" cy="3" r="3" fill="white"/>
        <path d="M11.124 7.99228C11.0582 7.46539 11.469 7 12 7C12.531 7 12.9418 7.46539 12.876 7.99228L12 15L11.124 7.99228Z" fill="url(#paint0_linear_51_31)"/>
        <path d="M5.8 12.0141C5.37777 11.6974 5.3339 11.0802 5.70711 10.707C6.08031 10.3338 6.69754 10.3776 7.01421 10.7998L10.6569 15.6567L5.8 12.0141Z" fill="url(#paint1_linear_51_31)"/>
        <path d="M17.3497 10.8C17.6664 10.3778 18.2836 10.3339 18.6568 10.7071C19.03 11.0803 18.9862 11.6975 18.5639 12.0142L13.7071 15.6569L17.3497 10.8Z" fill="url(#paint2_linear_51_31)"/>
        <defs>
        <linearGradient id="paint0_linear_51_31" x1="12" y1="7" x2="12" y2="15" gradientUnits="userSpaceOnUse">
        <stop stop-color="white"/>
        <stop offset="1" stop-color="#ADADAD" stop-opacity="0"/>
        </linearGradient>
        <linearGradient id="paint1_linear_51_31" x1="5.70711" y1="10.707" x2="10.6569" y2="15.6567" gradientUnits="userSpaceOnUse">
        <stop stop-color="white"/>
        <stop offset="1" stop-color="#ADADAD" stop-opacity="0"/>
        </linearGradient>
        <linearGradient id="paint2_linear_51_31" x1="18.6568" y1="10.7071" x2="13.7071" y2="15.6569" gradientUnits="userSpaceOnUse">
        <stop stop-color="white"/>
        <stop offset="1" stop-color="#ADADAD" stop-opacity="0"/>
        </linearGradient>
        </defs>
    </symbol>
    <symbol id="combination-4" viewBox="0 0 22 22" fill="inherit" xmlns="http://www.w3.org/2000/svg">
        <circle cx="3.95605" cy="3.90186" r="3" fill="white"/>
        <path d="M6.87208 8.03778C6.44612 7.73352 6.3953 7.11959 6.76546 6.74944C7.13561 6.37928 7.74954 6.4301 8.0538 6.85606L11.0081 10.9921L6.87208 8.03778Z" fill="url(#paint0_linear_51_30)"/>
        <circle cx="3" cy="3" r="3" transform="matrix(1 0 0 -1 15.0439 21.0981)" fill="white"/>
        <path d="M13.9461 15.1443C14.2504 15.5702 14.8643 15.6211 15.2345 15.2509C15.6046 14.8807 15.5538 14.2668 15.1278 13.9626L10.9918 11.0083L13.9461 15.1443Z" fill="url(#paint1_linear_51_30)"/>
        <circle cx="3" cy="3" r="3" transform="matrix(1 0 0 -1 15.0981 6.95605)" fill="white"/>
        <path d="M15.1443 8.05389C15.5702 7.74963 15.6211 7.1357 15.2509 6.76555C14.8807 6.3954 14.2668 6.44621 13.9626 6.87218L11.0083 11.0082L15.1443 8.05389Z" fill="url(#paint2_linear_51_30)"/>
        <circle cx="3" cy="3" r="3" transform="matrix(1 0 0 -1 0.901855 21.0439)" fill="white"/>
        <path d="M6.85573 13.9461C6.42976 14.2504 6.37895 14.8643 6.7491 15.2345C7.11925 15.6046 7.73318 15.5538 8.03744 15.1278L10.9917 10.9918L6.85573 13.9461Z" fill="url(#paint3_linear_51_30)"/>
        <defs>
        <linearGradient id="paint0_linear_51_30" x1="6.76546" y1="6.74944" x2="11.0081" y2="10.9921" gradientUnits="userSpaceOnUse">
        <stop stop-color="white"/>
        <stop offset="1" stop-color="#ADADAD" stop-opacity="0"/>
        </linearGradient>
        <linearGradient id="paint1_linear_51_30" x1="15.2345" y1="15.2509" x2="10.9918" y2="11.0083" gradientUnits="userSpaceOnUse">
        <stop stop-color="white"/>
        <stop offset="1" stop-color="#ADADAD" stop-opacity="0"/>
        </linearGradient>
        <linearGradient id="paint2_linear_51_30" x1="15.2509" y1="6.76555" x2="11.0083" y2="11.0082" gradientUnits="userSpaceOnUse">
        <stop stop-color="white"/>
        <stop offset="1" stop-color="#ADADAD" stop-opacity="0"/>
        </linearGradient>
        <linearGradient id="paint3_linear_51_30" x1="6.7491" y1="15.2345" x2="10.9917" y2="10.9918" gradientUnits="userSpaceOnUse">
        <stop stop-color="white"/>
        <stop offset="1" stop-color="#ADADAD" stop-opacity="0"/>
        </linearGradient>
        </defs>
    </symbol>
    <symbol id="combination-5" viewBox="0 0 21 24" fill="inherit" xmlns="http://www.w3.org/2000/svg">
        <circle cx="10" cy="3" r="3" fill="white"/>
        <path d="M9.1644 7.98639C9.07834 7.47004 9.47653 7 10 7C10.5235 7 10.9217 7.47004 10.8356 7.98639L10 13L9.1644 7.98639Z" fill="url(#paint0_linear_50_29)"/>
        <circle cx="3" cy="3" r="3" transform="matrix(1 0 0 -1 14.1421 23.0981)" fill="white"/>
        <path d="M13.0443 17.1443C13.3485 17.5702 13.9624 17.6211 14.3326 17.2509C14.7027 16.8807 14.6519 16.2668 14.226 15.9626L10.09 13.0083L13.0443 17.1443Z" fill="url(#paint1_linear_50_29)"/>
        <circle cx="3" cy="3" r="3" transform="matrix(1 0 0 -1 0 23.0439)" fill="white"/>
        <path d="M5.95387 15.9461C5.5279 16.2504 5.47709 16.8643 5.84724 17.2345C6.21739 17.6046 6.83133 17.5538 7.13559 17.1278L10.0899 12.9918L5.95387 15.9461Z" fill="url(#paint2_linear_50_29)"/>
        <defs>
            <linearGradient id="paint0_linear_50_29" x1="10" y1="7" x2="10" y2="13" gradientUnits="userSpaceOnUse">
                <stop stop-color="white"/>
                <stop offset="1" stop-color="#ADADAD" stop-opacity="0"/>
            </linearGradient>
            <linearGradient id="paint1_linear_50_29" x1="14.3326" y1="17.2509" x2="10.09" y2="13.0083" gradientUnits="userSpaceOnUse">
                <stop stop-color="white"/>
                <stop offset="1" stop-color="#ADADAD" stop-opacity="0"/>
            </linearGradient>
            <linearGradient id="paint2_linear_50_29" x1="5.84724" y1="17.2345" x2="10.0899" y2="12.9918" gradientUnits="userSpaceOnUse">
                <stop stop-color="white"/>
                <stop offset="1" stop-color="#ADADAD" stop-opacity="0"/>
            </linearGradient>
        </defs>
    </symbol>
    <symbol id="combination-6" viewBox="0 0 24 26" fill="inherit" xmlns="http://www.w3.org/2000/svg">
        <circle cx="3" cy="8" r="3" fill="white"/>
        <circle cx="21" cy="8" r="3" fill="white"/>
        <circle cx="12" cy="3" r="3" fill="white"/>
        <circle cx="12" cy="23" r="3" transform="rotate(180 12 23)" fill="white"/>
        <path d="M11.1644 7.98639C11.0783 7.47004 11.4765 7 12 7V7C12.5235 7 12.9217 7.47004 12.8356 7.98639L12 13L11.1644 7.98639Z" fill="url(#paint0_linear_50_28)"/>
        <path d="M5.81373 11.9953C5.38777 11.691 5.33696 11.0771 5.70711 10.707V10.707C6.07726 10.3368 6.69119 10.3876 6.99545 10.8136L9.94975 14.9496L5.81373 11.9953Z" fill="url(#paint1_linear_50_28)"/>
        <path d="M17.3685 10.8137C17.6727 10.3878 18.2867 10.337 18.6568 10.7071V10.7071C19.027 11.0773 18.9762 11.6912 18.5502 11.9955L14.4142 14.9497L17.3685 10.8137Z" fill="url(#paint2_linear_50_28)"/>
        <path d="M12.8356 18.0136C12.9217 18.53 12.5235 19 12 19V19C11.4765 19 11.0783 18.53 11.1644 18.0136L12 13L12.8356 18.0136Z" fill="url(#paint3_linear_50_28)"/>
        <defs>
        <linearGradient id="paint0_linear_50_28" x1="12" y1="7" x2="12" y2="13" gradientUnits="userSpaceOnUse">
        <stop stop-color="white"/>
        <stop offset="1" stop-color="#737373" stop-opacity="0"/>
        </linearGradient>
        <linearGradient id="paint1_linear_50_28" x1="5.70711" y1="10.707" x2="9.94975" y2="14.9496" gradientUnits="userSpaceOnUse">
        <stop stop-color="white"/>
        <stop offset="1" stop-color="#737373" stop-opacity="0"/>
        </linearGradient>
        <linearGradient id="paint2_linear_50_28" x1="18.6568" y1="10.7071" x2="14.4142" y2="14.9497" gradientUnits="userSpaceOnUse">
        <stop stop-color="white"/>
        <stop offset="1" stop-color="#737373" stop-opacity="0"/>
        </linearGradient>
        <linearGradient id="paint3_linear_50_28" x1="12" y1="19" x2="12" y2="13" gradientUnits="userSpaceOnUse">
        <stop stop-color="white"/>
        <stop offset="1" stop-color="#737373" stop-opacity="0"/>
        </linearGradient>
        </defs>
    </symbol>
</svg>
